<mxfile host="Electron" agent="Mozilla/5.0 (Windows NT 10.0; Win64; x64) AppleWebKit/537.36 (KHTML, like Gecko) draw.io/26.2.15 Chrome/134.0.6998.205 Electron/35.2.1 Safari/537.36" version="26.2.15">
  <diagram name="Страница — 1" id="f-3Wo4KOaTY6EZ2B9b2I">
    <mxGraphModel dx="2066" dy="40" grid="1" gridSize="10" guides="1" tooltips="1" connect="1" arrows="1" fold="1" page="1" pageScale="1" pageWidth="827" pageHeight="1169" math="0" shadow="0">
      <root>
        <mxCell id="0" />
        <mxCell id="1" parent="0" />
        <mxCell id="u6wldapc74UnJEtNhcMF-6" style="edgeStyle=orthogonalEdgeStyle;rounded=0;orthogonalLoop=1;jettySize=auto;html=1;entryX=0;entryY=0.5;entryDx=0;entryDy=0;" edge="1" parent="1" source="u6wldapc74UnJEtNhcMF-1" target="u6wldapc74UnJEtNhcMF-2">
          <mxGeometry relative="1" as="geometry" />
        </mxCell>
        <mxCell id="u6wldapc74UnJEtNhcMF-7" style="edgeStyle=orthogonalEdgeStyle;rounded=0;orthogonalLoop=1;jettySize=auto;html=1;" edge="1" parent="1" source="u6wldapc74UnJEtNhcMF-1" target="u6wldapc74UnJEtNhcMF-3">
          <mxGeometry relative="1" as="geometry" />
        </mxCell>
        <mxCell id="u6wldapc74UnJEtNhcMF-8" style="edgeStyle=orthogonalEdgeStyle;rounded=0;orthogonalLoop=1;jettySize=auto;html=1;entryX=0;entryY=0.5;entryDx=0;entryDy=0;" edge="1" parent="1" source="u6wldapc74UnJEtNhcMF-1" target="u6wldapc74UnJEtNhcMF-4">
          <mxGeometry relative="1" as="geometry" />
        </mxCell>
        <mxCell id="u6wldapc74UnJEtNhcMF-1" value="Клиент" style="shape=umlActor;verticalLabelPosition=bottom;verticalAlign=top;html=1;outlineConnect=0;" vertex="1" parent="1">
          <mxGeometry x="80" y="1420" width="30" height="60" as="geometry" />
        </mxCell>
        <mxCell id="u6wldapc74UnJEtNhcMF-11" style="edgeStyle=orthogonalEdgeStyle;rounded=0;orthogonalLoop=1;jettySize=auto;html=1;" edge="1" parent="1" source="u6wldapc74UnJEtNhcMF-2" target="u6wldapc74UnJEtNhcMF-10">
          <mxGeometry relative="1" as="geometry">
            <Array as="points">
              <mxPoint x="490" y="1410" />
              <mxPoint x="490" y="1490" />
            </Array>
          </mxGeometry>
        </mxCell>
        <mxCell id="u6wldapc74UnJEtNhcMF-2" value="Сайт" style="rounded=1;whiteSpace=wrap;html=1;" vertex="1" parent="1">
          <mxGeometry x="280" y="1380" width="120" height="60" as="geometry" />
        </mxCell>
        <mxCell id="u6wldapc74UnJEtNhcMF-12" style="edgeStyle=orthogonalEdgeStyle;rounded=0;orthogonalLoop=1;jettySize=auto;html=1;entryX=0;entryY=0.5;entryDx=0;entryDy=0;" edge="1" parent="1" source="u6wldapc74UnJEtNhcMF-3" target="u6wldapc74UnJEtNhcMF-10">
          <mxGeometry relative="1" as="geometry" />
        </mxCell>
        <mxCell id="u6wldapc74UnJEtNhcMF-3" value="Интернет-банк" style="rounded=1;whiteSpace=wrap;html=1;" vertex="1" parent="1">
          <mxGeometry x="280" y="1460" width="120" height="60" as="geometry" />
        </mxCell>
        <mxCell id="u6wldapc74UnJEtNhcMF-14" style="edgeStyle=orthogonalEdgeStyle;rounded=0;orthogonalLoop=1;jettySize=auto;html=1;entryX=0;entryY=0.5;entryDx=0;entryDy=0;" edge="1" parent="1" source="u6wldapc74UnJEtNhcMF-4" target="u6wldapc74UnJEtNhcMF-10">
          <mxGeometry relative="1" as="geometry" />
        </mxCell>
        <mxCell id="u6wldapc74UnJEtNhcMF-4" value="Кол-центр" style="rounded=1;whiteSpace=wrap;html=1;" vertex="1" parent="1">
          <mxGeometry x="280" y="1550" width="120" height="60" as="geometry" />
        </mxCell>
        <mxCell id="u6wldapc74UnJEtNhcMF-9" style="edgeStyle=orthogonalEdgeStyle;rounded=0;orthogonalLoop=1;jettySize=auto;html=1;" edge="1" parent="1" source="u6wldapc74UnJEtNhcMF-5" target="u6wldapc74UnJEtNhcMF-4">
          <mxGeometry relative="1" as="geometry" />
        </mxCell>
        <mxCell id="u6wldapc74UnJEtNhcMF-5" value="Оператор" style="shape=umlActor;verticalLabelPosition=bottom;verticalAlign=top;html=1;outlineConnect=0;" vertex="1" parent="1">
          <mxGeometry x="325" y="1670" width="30" height="60" as="geometry" />
        </mxCell>
        <mxCell id="u6wldapc74UnJEtNhcMF-24" style="edgeStyle=orthogonalEdgeStyle;rounded=0;orthogonalLoop=1;jettySize=auto;html=1;" edge="1" parent="1" source="u6wldapc74UnJEtNhcMF-10" target="u6wldapc74UnJEtNhcMF-22">
          <mxGeometry relative="1" as="geometry" />
        </mxCell>
        <mxCell id="u6wldapc74UnJEtNhcMF-10" value="АБС" style="rounded=1;whiteSpace=wrap;html=1;" vertex="1" parent="1">
          <mxGeometry x="580" y="1445" width="190" height="90" as="geometry" />
        </mxCell>
        <mxCell id="u6wldapc74UnJEtNhcMF-20" style="edgeStyle=orthogonalEdgeStyle;rounded=0;orthogonalLoop=1;jettySize=auto;html=1;" edge="1" parent="1" source="u6wldapc74UnJEtNhcMF-17" target="u6wldapc74UnJEtNhcMF-10">
          <mxGeometry relative="1" as="geometry" />
        </mxCell>
        <mxCell id="u6wldapc74UnJEtNhcMF-17" value="Сотрудник фронт офиса&lt;div&gt;&lt;br&gt;&lt;/div&gt;" style="shape=umlActor;verticalLabelPosition=bottom;verticalAlign=top;html=1;outlineConnect=0;" vertex="1" parent="1">
          <mxGeometry x="580" y="1630" width="30" height="60" as="geometry" />
        </mxCell>
        <mxCell id="u6wldapc74UnJEtNhcMF-26" style="edgeStyle=orthogonalEdgeStyle;rounded=0;orthogonalLoop=1;jettySize=auto;html=1;entryX=0.5;entryY=1;entryDx=0;entryDy=0;" edge="1" parent="1" source="u6wldapc74UnJEtNhcMF-19" target="u6wldapc74UnJEtNhcMF-10">
          <mxGeometry relative="1" as="geometry" />
        </mxCell>
        <mxCell id="u6wldapc74UnJEtNhcMF-19" value="Сотрудник бек&lt;span style=&quot;background-color: transparent; color: light-dark(rgb(0, 0, 0), rgb(255, 255, 255));&quot;&gt;&amp;nbsp;офиса&lt;/span&gt;&lt;div&gt;&lt;div&gt;&lt;div&gt;&lt;br&gt;&lt;/div&gt;&lt;/div&gt;&lt;/div&gt;" style="shape=umlActor;verticalLabelPosition=bottom;verticalAlign=top;html=1;outlineConnect=0;" vertex="1" parent="1">
          <mxGeometry x="730" y="1630" width="30" height="60" as="geometry" />
        </mxCell>
        <mxCell id="u6wldapc74UnJEtNhcMF-25" style="edgeStyle=orthogonalEdgeStyle;rounded=0;orthogonalLoop=1;jettySize=auto;html=1;" edge="1" parent="1" source="u6wldapc74UnJEtNhcMF-22" target="u6wldapc74UnJEtNhcMF-23">
          <mxGeometry relative="1" as="geometry" />
        </mxCell>
        <mxCell id="u6wldapc74UnJEtNhcMF-22" value="СМС-шлюз" style="rounded=1;whiteSpace=wrap;html=1;" vertex="1" parent="1">
          <mxGeometry x="880" y="1460" width="120" height="60" as="geometry" />
        </mxCell>
        <mxCell id="u6wldapc74UnJEtNhcMF-23" value="Телеком-оператор" style="rounded=1;whiteSpace=wrap;html=1;" vertex="1" parent="1">
          <mxGeometry x="1070" y="1460" width="120" height="60" as="geometry" />
        </mxCell>
      </root>
    </mxGraphModel>
  </diagram>
</mxfile>
